<mxfile host="www.draw.io" modified="2020-02-25T13:02:46.193Z" agent="Mozilla/5.0 (X11; Linux x86_64) AppleWebKit/537.36 (KHTML, like Gecko) Chrome/80.0.3987.87 Safari/537.36" etag="X8Tho5EoxjjgbvVxuIvO" version="12.7.4" type="github">
  <diagram id="ZIAEYQon8UoXUgGUtfqb" name="Page-1">
    <mxGraphModel dx="2249" dy="733" grid="1" gridSize="10" guides="1" tooltips="1" connect="1" arrows="1" fold="1" page="1" pageScale="1" pageWidth="827" pageHeight="1169" math="0" shadow="0">
      <root>
        <mxCell id="0" />
        <mxCell id="1" parent="0" />
        <mxCell id="hM4GjHnaRlgPxHw-euEw-2" style="edgeStyle=orthogonalEdgeStyle;rounded=0;orthogonalLoop=1;jettySize=auto;html=1;exitX=1;exitY=0.5;exitDx=0;exitDy=0;" edge="1" parent="1" source="hM4GjHnaRlgPxHw-euEw-1" target="hM4GjHnaRlgPxHw-euEw-3">
          <mxGeometry relative="1" as="geometry">
            <mxPoint x="200" y="180" as="targetPoint" />
          </mxGeometry>
        </mxCell>
        <mxCell id="hM4GjHnaRlgPxHw-euEw-1" value="Nginx Load Balancer:80" style="rounded=1;whiteSpace=wrap;html=1;fillColor=#f8cecc;strokeColor=#b85450;" vertex="1" parent="1">
          <mxGeometry x="50" y="150" width="120" height="60" as="geometry" />
        </mxCell>
        <mxCell id="hM4GjHnaRlgPxHw-euEw-23" style="edgeStyle=orthogonalEdgeStyle;rounded=0;orthogonalLoop=1;jettySize=auto;html=1;endArrow=classic;endFill=1;" edge="1" parent="1" source="hM4GjHnaRlgPxHw-euEw-20" target="hM4GjHnaRlgPxHw-euEw-1">
          <mxGeometry relative="1" as="geometry">
            <Array as="points">
              <mxPoint x="10" y="100" />
              <mxPoint x="10" y="180" />
            </Array>
          </mxGeometry>
        </mxCell>
        <mxCell id="hM4GjHnaRlgPxHw-euEw-20" value="User&amp;nbsp;" style="rounded=1;whiteSpace=wrap;html=1;fillColor=#f8cecc;strokeColor=#b85450;" vertex="1" parent="1">
          <mxGeometry x="-150" y="70" width="120" height="60" as="geometry" />
        </mxCell>
        <mxCell id="hM4GjHnaRlgPxHw-euEw-5" value="" style="edgeStyle=orthogonalEdgeStyle;rounded=0;orthogonalLoop=1;jettySize=auto;html=1;" edge="1" parent="1" source="hM4GjHnaRlgPxHw-euEw-3" target="hM4GjHnaRlgPxHw-euEw-4">
          <mxGeometry relative="1" as="geometry" />
        </mxCell>
        <mxCell id="hM4GjHnaRlgPxHw-euEw-3" value="Nginx: 3002" style="rounded=1;whiteSpace=wrap;html=1;" vertex="1" parent="1">
          <mxGeometry x="230" y="150" width="120" height="60" as="geometry" />
        </mxCell>
        <mxCell id="hM4GjHnaRlgPxHw-euEw-7" value="" style="edgeStyle=orthogonalEdgeStyle;rounded=0;orthogonalLoop=1;jettySize=auto;html=1;" edge="1" parent="1" source="hM4GjHnaRlgPxHw-euEw-4" target="hM4GjHnaRlgPxHw-euEw-6">
          <mxGeometry relative="1" as="geometry" />
        </mxCell>
        <mxCell id="hM4GjHnaRlgPxHw-euEw-4" value="Zuul API Gateway: 8762" style="rounded=1;whiteSpace=wrap;html=1;fillColor=#d5e8d4;strokeColor=#82b366;" vertex="1" parent="1">
          <mxGeometry x="400" y="150" width="120" height="60" as="geometry" />
        </mxCell>
        <mxCell id="hM4GjHnaRlgPxHw-euEw-9" value="" style="edgeStyle=orthogonalEdgeStyle;rounded=0;orthogonalLoop=1;jettySize=auto;html=1;" edge="1" parent="1" source="hM4GjHnaRlgPxHw-euEw-6" target="hM4GjHnaRlgPxHw-euEw-8">
          <mxGeometry relative="1" as="geometry">
            <Array as="points">
              <mxPoint x="860" y="180" />
            </Array>
          </mxGeometry>
        </mxCell>
        <mxCell id="hM4GjHnaRlgPxHw-euEw-13" value="" style="edgeStyle=orthogonalEdgeStyle;rounded=0;orthogonalLoop=1;jettySize=auto;html=1;" edge="1" parent="1" source="hM4GjHnaRlgPxHw-euEw-6" target="hM4GjHnaRlgPxHw-euEw-12">
          <mxGeometry relative="1" as="geometry">
            <Array as="points">
              <mxPoint x="760" y="180" />
              <mxPoint x="760" y="100" />
            </Array>
          </mxGeometry>
        </mxCell>
        <mxCell id="hM4GjHnaRlgPxHw-euEw-16" value="" style="edgeStyle=orthogonalEdgeStyle;rounded=0;orthogonalLoop=1;jettySize=auto;html=1;" edge="1" parent="1" source="hM4GjHnaRlgPxHw-euEw-6" target="hM4GjHnaRlgPxHw-euEw-15">
          <mxGeometry relative="1" as="geometry">
            <Array as="points">
              <mxPoint x="760" y="180" />
              <mxPoint x="760" y="270" />
            </Array>
          </mxGeometry>
        </mxCell>
        <mxCell id="hM4GjHnaRlgPxHw-euEw-6" value="Eureka Load Balancer: 8761" style="rounded=1;whiteSpace=wrap;html=1;fillColor=#f8cecc;strokeColor=#b85450;" vertex="1" parent="1">
          <mxGeometry x="600" y="150" width="120" height="60" as="geometry" />
        </mxCell>
        <mxCell id="hM4GjHnaRlgPxHw-euEw-15" value="Chatservice:8083" style="rounded=1;whiteSpace=wrap;html=1;" vertex="1" parent="1">
          <mxGeometry x="800" y="240" width="120" height="60" as="geometry" />
        </mxCell>
        <mxCell id="hM4GjHnaRlgPxHw-euEw-12" value="Userservice: 8081" style="rounded=1;whiteSpace=wrap;html=1;" vertex="1" parent="1">
          <mxGeometry x="800" y="60" width="120" height="60" as="geometry" />
        </mxCell>
        <mxCell id="hM4GjHnaRlgPxHw-euEw-18" value="" style="edgeStyle=orthogonalEdgeStyle;rounded=0;orthogonalLoop=1;jettySize=auto;html=1;" edge="1" parent="1" source="hM4GjHnaRlgPxHw-euEw-8" target="hM4GjHnaRlgPxHw-euEw-17">
          <mxGeometry relative="1" as="geometry" />
        </mxCell>
        <mxCell id="hM4GjHnaRlgPxHw-euEw-8" value="Postservice:8082" style="rounded=1;whiteSpace=wrap;html=1;" vertex="1" parent="1">
          <mxGeometry x="800" y="150" width="120" height="60" as="geometry" />
        </mxCell>
        <mxCell id="hM4GjHnaRlgPxHw-euEw-17" value="Dataprocessingservice:5000" style="rounded=1;whiteSpace=wrap;html=1;" vertex="1" parent="1">
          <mxGeometry x="1000" y="150" width="200" height="60" as="geometry" />
        </mxCell>
        <mxCell id="hM4GjHnaRlgPxHw-euEw-25" style="edgeStyle=orthogonalEdgeStyle;rounded=0;orthogonalLoop=1;jettySize=auto;html=1;entryX=0;entryY=0.5;entryDx=0;entryDy=0;endArrow=classic;endFill=1;" edge="1" parent="1" source="hM4GjHnaRlgPxHw-euEw-24" target="hM4GjHnaRlgPxHw-euEw-1">
          <mxGeometry relative="1" as="geometry" />
        </mxCell>
        <mxCell id="hM4GjHnaRlgPxHw-euEw-24" value="User&amp;nbsp;" style="rounded=1;whiteSpace=wrap;html=1;fillColor=#f8cecc;strokeColor=#b85450;" vertex="1" parent="1">
          <mxGeometry x="-150" y="150" width="120" height="60" as="geometry" />
        </mxCell>
        <mxCell id="hM4GjHnaRlgPxHw-euEw-27" style="edgeStyle=orthogonalEdgeStyle;rounded=0;orthogonalLoop=1;jettySize=auto;html=1;entryX=0;entryY=0.5;entryDx=0;entryDy=0;endArrow=classic;endFill=1;" edge="1" parent="1" source="hM4GjHnaRlgPxHw-euEw-26" target="hM4GjHnaRlgPxHw-euEw-1">
          <mxGeometry relative="1" as="geometry" />
        </mxCell>
        <mxCell id="hM4GjHnaRlgPxHw-euEw-26" value="User&amp;nbsp;" style="rounded=1;whiteSpace=wrap;html=1;fillColor=#f8cecc;strokeColor=#b85450;" vertex="1" parent="1">
          <mxGeometry x="-150" y="230" width="120" height="60" as="geometry" />
        </mxCell>
      </root>
    </mxGraphModel>
  </diagram>
</mxfile>
